#!OML:ASF X:\für Bonn\!DataBase\2005_08_12_Daniel\c3d\Daniel.ASF
:FULLY-SPECIFIED
:DEGREES
107
root 0.246572 11.5575 -2.11594 164.425 -6.1439 -182.073
lowerback 73.3275 -7.11355 21.0288
upperback 11.0964 -2.72659 -0.532074
thorax -7.1671 -4.83643 -6.91888
lowerneck 4.28405 -6.69886 -6.52199
upperneck 9.60791 -9.90277 1.57307
head 2.78054 -5.29282 1.46641
rclavicle 4.77083e-015 -1.59028e-015
rhumerus 21.7169 -11.8238 -69.2614
rradius 12.1978
rwrist 33.4573
rhand -25.8811 7.40842
rfingers 7.12502
rthumb 0.660537 -22.5703
lclavicle 4.77083e-015 -1.59028e-015
lhumerus -30.5403 -14.7076 93.4358
lradius 99.8245
lwrist -8.4151
lhand -22.7415 -7.35427
lfingers 7.12502
lthumb 3.69272 22.5935
rfemur -58.2507 -25.8966 8.05156
rtibia 116.699
rfoot -21.4848 27.563
rtoes 1.91212
lfemur -59.999 15.6607 -21.9154
ltibia 115.55
lfoot -34.758 -16.7669
ltoes 1.71181
108
root 0.252501 11.438 -2.15124 164.054 -6.51998 -182.102
lowerback 73.5239 -7.31899 21.2158
upperback 11.1246 -2.82459 -0.408347
thorax -7.08463 -4.90992 -6.78317
lowerneck 4.176 -6.75696 -6.71751
upperneck 9.80509 -9.99858 1.58916
head 2.88513 -5.35221 1.49352
rclavicle -1.11319e-014 7.95139e-016
rhumerus 21.5521 -12.0144 -68.9947
rradius 12.2229
rwrist 33.7738
rhand -25.6621 7.17749
rfingers 7.12502
rthumb 0.872056 -22.8005
lclavicle -1.11319e-014 7.95139e-016
lhumerus -30.5382 -15.16 93.5263
lradius 100.471
lwrist -8.63684
lhand -23.2839 -7.35702
lfingers 7.12502
lthumb 3.16898 22.5992
rfemur -58.3901 -26.9464 7.14179
rtibia 117.896
rfoot -20.9738 28.9067
rtoes 1.92462
lfemur -60.4018 16.1266 -21.7271
ltibia 116.723
lfoot -34.5938 -17.7332
ltoes 2.30384
109
root 0.258356 11.3196 -2.18445 163.689 -6.86934 -182.116
lowerback 73.7202 -7.53795 21.4216
upperback 11.1316 -2.90925 -0.320981
thorax -7.02466 -4.97077 -6.70081
lowerneck 4.16017 -6.82237 -6.86479
upperneck 9.97782 -10.1107 1.61262
head 2.9637 -5.41844 1.51852
rclavicle 3.18055e-014 -3.26007e-014
rhumerus 21.3799 -12.5665 -68.949
rradius 12.2216
rwrist 34.4522
rhand -25.4642 6.9579
rfingers 7.12502
rthumb 1.06323 -23.0192
lclavicle 3.18055e-014 -3.26007e-014
lhumerus -30.5469 -15.6448 93.5569
lradius 101.061
lwrist -8.84488
lhand -23.8588 -7.32078
lfingers 7.12502
lthumb 2.61376 22.643
rfemur -58.5236 -27.9723 6.23102
rtibia 119.063
rfoot -20.3988 30.2777
rtoes 2.05078
lfemur -60.8147 16.6546 -21.5033
ltibia 117.881
lfoot -34.4242 -18.7221
ltoes 2.71437
110
root 0.263948 11.1993 -2.21677 163.271 -7.19762 -182.123
lowerback 73.9793 -7.74675 21.6007
upperback 11.139 -3.0077 -0.212903
thorax -6.96107 -5.04922 -6.57445
lowerneck 4.10497 -6.86898 -7.02195
upperneck 10.135 -10.1903 1.60128
head 3.04116 -5.46927 1.53332
rclavicle -3.97569e-014 -5.56597e-015
rhumerus 21.2519 -13.102 -68.9183
rradius 12.2345
rwrist 35.1636
rhand -25.4088 6.80673
rfingers 7.12502
rthumb 1.11673 -23.1701
lclavicle -3.97569e-014 -5.56597e-015
lhumerus -30.5571 -16.0088 93.6059
lradius 101.647
lwrist -9.06003
lhand -24.448 -7.17709
lfingers 7.12502
lthumb 2.04469 22.7929
rfemur -58.5337 -29.0115 5.24674
rtibia 120.204
rfoot -19.7058 31.6964
rtoes 2.62493
lfemur -61.1713 17.2509 -21.2447
ltibia 119.03
lfoot -34.2456 -19.7059
ltoes 3.24797
111
root 0.269043 11.0799 -2.24862 162.869 -7.48342 -182.162
lowerback 74.255 -7.92013 21.7368
upperback 11.1212 -3.07967 -0.112966
thorax -6.92947 -5.11581 -6.45124
lowerneck 4.13247 -6.91986 -7.22045
upperneck 10.2656 -10.2867 1.62616
head 3.10105 -5.52989 1.57025
rclavicle 1.27222e-014 -3.33958e-014
rhumerus 21.0115 -13.4209 -68.7592
rradius 12.3228
rwrist 35.5759
rhand -25.3947 6.63862
rfingers 7.12502
rthumb 1.13035 -23.3381
lclavicle 1.27222e-014 -3.33958e-014
lhumerus -30.6013 -16.3864 93.6537
lradius 102.223
lwrist -9.13723
lhand -25.1378 -6.95279
lfingers 7.12502
lthumb 1.3785 23.0225
rfemur -58.584 -29.9967 4.21649
rtibia 121.338
rfoot -18.8984 33.1521
rtoes 3.21206
lfemur -61.5388 17.9917 -21.0455
ltibia 120.179
lfoot -34.1201 -20.5443
ltoes 3.46381
112
root 0.273842 10.959 -2.28016 162.458 -7.74051 -182.17
lowerback 74.4879 -8.11819 21.9381
upperback 11.1394 -3.1567 -0.042614
thorax -6.85141 -5.1777 -6.38917
lowerneck 4.16982 -6.97842 -7.38231
upperneck 10.3555 -10.3894 1.66069
head 3.14406 -5.59017 1.60525
rclavicle -2.54444e-014 -5.88403e-014
rhumerus 20.9186 -14.3476 -68.9319
rradius 12.2878
rwrist 36.574
rhand -25.4705 6.57409
rfingers 7.12502
rthumb 1.05715 -23.403
lclavicle -2.54444e-014 -5.88403e-014
lhumerus -30.6142 -16.6957 93.6943
lradius 102.741
lwrist -9.2504
lhand -25.7582 -6.74847
lfingers 7.12502
lthumb 0.77928 23.2299
rfemur -58.6217 -31.0377 3.23492
rtibia 122.473
rfoot -18.2144 34.5304
rtoes 3.76433
lfemur -61.9243 18.8646 -20.782
ltibia 121.344
lfoot -34.0382 -21.3944
ltoes 3.59227
113
root 0.276884 10.8387 -2.31208 162.041 -7.97204 -182.201
lowerback 74.7242 -8.31826 22.1197
upperback 11.1561 -3.25317 0.0146437
thorax -6.78023 -5.24837 -6.32665
lowerneck 4.25038 -7.016 -7.60171
upperneck 10.4182 -10.4701 1.72268
head 3.17478 -5.64131 1.66205
rclavicle 4.92986e-014 6.67916e-014
rhumerus 20.8166 -15.1882 -69.0974
rradius 12.2708
rwrist 37.4674
rhand -25.6757 6.51373
rfingers 7.12502
rthumb 0.858925 -23.4643
lclavicle 4.92986e-014 6.67916e-014
lhumerus -30.626 -16.9424 93.7055
lradius 103.26
lwrist -9.27212
lhand -26.4023 -6.44457
lfingers 7.12502
lthumb 0.157218 23.5351
rfemur -58.6463 -32.1212 2.23326
rtibia 123.609
rfoot -17.7405 35.8273
rtoes 3.99746
lfemur -62.2796 19.7683 -20.5383
ltibia 122.493
lfoot -33.9962 -22.211
ltoes 3.71687
114
root 0.280514 10.7198 -2.34437 161.61 -8.20394 -182.231
lowerback 74.9706 -8.50899 22.2845
upperback 11.165 -3.34648 0.0787497
thorax -6.71793 -5.32022 -6.25003
lowerneck 4.35041 -7.04248 -7.84021
upperneck 10.4734 -10.5395 1.80239
head 3.20163 -5.68737 1.72936
rclavicle 4.6118e-014 7.71285e-014
rhumerus 20.6992 -15.9669 -69.2316
rradius 12.2282
rwrist 38.2869
rhand -25.9828 6.51434
rfingers 7.12502
rthumb 0.562377 -23.4647
lclavicle 4.6118e-014 7.71285e-014
lhumerus -30.5906 -17.1359 93.742
lradius 103.669
lwrist -9.22544
lhand -27.0755 -6.1645
lfingers 7.12502
lthumb -0.493034 23.8147
rfemur -58.5962 -33.2742 1.19148
rtibia 124.721
rfoot -17.3707 37.0739
rtoes 4.04245
lfemur -62.5851 20.7038 -20.2661
ltibia 123.624
lfoot -33.957 -23.0025
ltoes 3.81534
115
root 0.28359 10.6021 -2.37718 161.185 -8.42961 -182.258
lowerback 75.1972 -8.69884 22.4461
upperback 11.1772 -3.44356 0.131369
thorax -6.65505 -5.39085 -6.18567
lowerneck 4.48712 -7.07018 -8.0116
upperneck 10.5129 -10.6103 1.85762
head 3.21042 -5.73229 1.77925
rclavicle -2.70347e-014 -2.06736e-014
rhumerus 20.6244 -16.9705 -69.5106
rradius 12.1426
rwrist 39.182
rhand -26.3439 6.60113
rfingers 7.12502
rthumb 0.21357 -23.3785
lclavicle -2.70347e-014 -2.06736e-014
lhumerus -30.4966 -17.2538 93.7614
lradius 103.969
lwrist -9.22906
lhand -27.717 -5.91311
lfingers 7.12502
lthumb -1.11261 24.0637
rfemur -58.519 -34.4778 0.114913
rtibia 125.823
rfoot -17.1071 38.3229
rtoes 4.224
lfemur -62.8935 21.6247 -19.9804
ltibia 124.739
lfoot -33.8949 -23.7618
ltoes 3.97405
116
root 0.286974 10.4864 -2.41063 160.759 -8.64169 -182.293
lowerback 75.4202 -8.87348 22.6031
upperback 11.1929 -3.52715 0.176195
thorax -6.58788 -5.45373 -6.13567
lowerneck 4.62776 -7.11114 -8.11766
upperneck 10.5526 -10.6963 1.89188
head 3.21364 -5.78256 1.81093
rclavicle 4.77083e-015 1.11319e-014
rhumerus 20.4844 -17.6815 -69.625
rradius 12.0953
rwrist 39.675
rhand -26.7402 6.7033
rfingers 7.12502
rthumb -0.169157 -23.2764
lclavicle 4.77083e-015 1.11319e-014
lhumerus -30.4469 -17.3907 93.7365
lradius 104.286
lwrist -9.09517
lhand -28.368 -5.76818
lfingers 7.12502
lthumb -1.7413 24.2045
rfemur -58.3548 -35.7422 -1.04533
rtibia 126.893
rfoot -16.8682 39.5861
rtoes 4.42525
lfemur -63.1879 22.5983 -19.7037
ltibia 125.828
lfoot -33.878 -24.4511
ltoes 4.02378
117
root 0.29 10.3711 -2.44359 160.327 -8.85595 -182.302
lowerback 75.6394 -9.04557 22.7547
upperback 11.2042 -3.61225 0.248365
thorax -6.52405 -5.52323 -6.04998
lowerneck 4.77953 -7.1448 -8.23026
upperneck 10.5781 -10.7721 1.893
head 3.20746 -5.8294 1.83394
rclavicle 7.4743e-014 5.40694e-014
rhumerus 20.4174 -18.5535 -69.824
rradius 12.0146
rwrist 40.3759
rhand -27.1367 6.8753
rfingers 7.12502
rthumb -0.552097 -23.1037
lclavicle 7.4743e-014 5.40694e-014
lhumerus -30.474 -17.4248 93.7306
lradius 104.646
lwrist -8.95319
lhand -28.9726 -5.63344
lfingers 7.12502
lthumb -2.32525 24.3336
rfemur -58.1736 -37.0573 -2.21186
rtibia 127.967
rfoot -16.8081 40.7225
rtoes 4.42438
lfemur -63.4844 23.5982 -19.3754
ltibia 126.912
lfoot -33.8362 -25.1503
ltoes 4.14577
118
root 0.293143 10.2599 -2.47786 159.878 -9.06991 -182.335
lowerback 75.8665 -9.23239 22.9087
upperback 11.2257 -3.71664 0.278514
thorax -6.45171 -5.59468 -6.00751
lowerneck 4.98814 -7.18365 -8.24239
upperneck 10.557 -10.8526 1.8982
head 3.16847 -5.87294 1.8448
rclavicle 6.04305e-014 4.92986e-014
rhumerus 20.1994 -18.8865 -69.7905
rradius 12.0311
rwrist 40.3313
rhand -27.5403 6.99201
rfingers 7.12502
rthumb -0.941903 -22.9857
lclavicle 6.04305e-014 4.92986e-014
lhumerus -30.5553 -17.4536 93.676
lradius 105.011
lwrist -8.84655
lhand -29.5628 -5.65586
lfingers 7.12502
lthumb -2.89525 24.3042
rfemur -57.8303 -38.4248 -3.52957
rtibia 128.994
rfoot -16.7655 41.8757
rtoes 4.44198
lfemur -63.6998 24.6212 -19.0537
ltibia 127.947
lfoot -33.8119 -25.834
ltoes 4.2573
